<svg width="600" height="600" viewBox="0 0 600 600" fill="none" xmlns="http://www.w3.org/2000/svg">
<path d="M325.75 109.687C328.332 111.256 330.746 112.791 333.078 114.711C335.35 116.235 336.327 116.225 339 115.937C342.094 115.822 342.739 115.815 345.375 117.687C347.043 120.061 348.041 122.271 349 125C349.33 125.33 349.66 125.66 350 126C349.897 127.072 349.794 128.145 349.688 129.25C349.611 133.517 350.954 136.441 352.812 140.25C357.411 149.751 359.247 158.185 359.375 168.688C359.389 169.471 359.403 170.255 359.417 171.063C359.36 178.021 357.884 184.174 354 190C354.161 192.233 354.161 192.233 354.812 194.625C355.008 195.513 355.204 196.401 355.406 197.316C355.602 198.202 355.798 199.088 356 200C357.329 206.632 357.123 211.874 354 218C351.839 220.485 349.642 222.465 347.125 224.562C346.754 225.037 346.382 225.511 346 226C346.186 226.639 346.371 227.279 346.562 227.937C346.707 228.618 346.851 229.299 347 230C345.015 232.673 343.669 233.82 340.438 234.687C339.633 234.791 338.829 234.894 338 235C337.01 235.33 336.02 235.66 335 236C334.01 235.67 333.02 235.34 332 235C331.776 235.715 331.551 236.431 331.32 237.168C329.704 240.635 327.626 242.667 324.875 245.312C323.965 246.196 323.055 247.079 322.117 247.988C321.419 248.652 320.72 249.316 320 250C321.578 250.34 321.578 250.34 323.188 250.687C329.119 252.386 332.403 257.243 336 262C336.743 262.969 337.485 263.939 338.25 264.937C340.178 268.312 340.363 270.183 340 274C340.802 274.217 340.802 274.217 341.621 274.439C349.992 276.82 358.042 279.988 366.125 283.187C366.86 283.478 367.594 283.768 368.351 284.067C394.573 294.466 416.992 306.129 428.979 333.213C442.586 365.571 452.158 401.4 458 436C458.241 436.946 458.482 437.892 458.73 438.867C458.819 439.571 458.908 440.275 459 441C456.812 443.813 456.812 443.813 454 446C452.68 446 451.36 446 450 446C450.165 447.134 450.33 448.269 450.5 449.438C452.499 467.888 452.057 488.461 440.625 503.875C434.874 510.779 429.17 515.981 420 517C414.913 517.196 409.957 517.322 405 516C404.67 518.97 404.34 521.94 404 525C403.316 525.008 402.632 525.016 401.927 525.025C368.093 525.43 334.262 525.945 300.438 526.875C299.702 526.895 298.967 526.915 298.209 526.936C277.167 527.52 256.185 528.461 235.204 530.229C213.076 532.082 213.076 532.082 204 529C202 527 202 527 201.875 523.375C201.916 522.261 201.957 521.148 202 520C200.701 519.938 199.401 519.876 198.062 519.813C188.276 518.666 180.469 512.111 174 505C170.474 499.057 169.869 493.543 169.902 486.727C169.907 484.996 169.907 484.996 169.912 483.23C169.925 481.446 169.925 481.446 169.938 479.625C169.942 478.412 169.947 477.199 169.951 475.949C169.963 472.966 169.979 469.983 170 467C169.306 466.962 168.612 466.924 167.898 466.885C156.015 466.136 144.198 464.788 132.367 463.471C128.679 463.062 124.991 462.661 121.303 462.26C118.935 461.998 116.567 461.736 114.199 461.473C113.108 461.355 112.018 461.237 110.894 461.116C93.3197 459.134 93.3197 459.134 88.625 454.875C87.6853 454.067 87.6853 454.067 86.7266 453.242C82.6172 447.906 81.4221 441.058 80.3086 434.555C80.1623 433.735 80.0159 432.915 79.8651 432.071C79.3808 429.34 78.9086 426.608 78.4375 423.875C78.0978 421.934 77.7579 419.992 77.418 418.051C74.4406 400.939 71.6261 383.799 68.8405 366.656C68.5005 364.566 68.1591 362.476 67.8174 360.386C67.174 356.447 66.5395 352.507 65.9063 348.566C65.7129 347.384 65.5196 346.201 65.3203 344.983C65.1457 343.886 64.971 342.789 64.791 341.658C64.6375 340.706 64.484 339.754 64.3258 338.772C63.9794 335.825 63.9446 332.965 64 330C85.1962 319.402 138.623 333.982 161.107 337.018C162.558 337.214 162.558 337.214 164.038 337.414C165.864 337.661 167.69 337.91 169.515 338.162C170.733 338.328 170.733 338.328 171.976 338.497C172.684 338.594 173.392 338.692 174.122 338.792C176.182 339.055 176.182 339.055 179 339C179.147 338.452 179.294 337.904 179.445 337.34C184.996 317.72 191.943 303.92 210.172 293.609C211.653 292.796 213.137 291.989 214.625 291.187C215.317 290.814 216.009 290.441 216.722 290.056C228.357 284 228.357 284 234 284C234.031 282.948 234.031 282.948 234.062 281.875C235.423 277.702 238.334 275.33 242 273C242.99 273 243.98 273 245 273C245.33 271.35 245.66 269.7 246 268C245.285 267.898 244.569 267.796 243.832 267.691C233.45 265.157 224.498 256.095 218.75 247.437C212.007 235.108 211.399 222.443 211.625 208.75C211.636 207.082 211.646 205.414 211.655 203.746C211.757 192.483 212.33 181.304 213.639 170.11C214.383 164.272 214.383 164.272 212.105 159.055C211.411 158.377 210.716 157.699 210 157C208.21 151.552 208.92 146.933 211.309 141.824C212.236 139.702 212.236 139.702 212 136C211.67 135.278 211.34 134.556 211 133.812C209.616 129.919 209.478 126.097 210 122C210.99 120.515 210.99 120.515 212 119C212.66 119 213.32 119 214 119C214.155 117.948 214.155 117.948 214.312 116.875C215.118 113.507 216.168 110.944 218 108C221.536 106.256 225.013 105.559 228.875 104.875C234.562 103.741 239.683 102.028 245.083 99.929C271.829 89.692 301.226 95.6357 325.75 109.687Z" fill="#1E1E1E"/>
<path d="M334 276C337.547 277.333 340.892 278.93 344.257 280.667C350.564 283.921 356.915 286.899 363.508 289.527C364.216 289.81 364.924 290.093 365.654 290.384C368.53 291.527 371.41 292.661 374.296 293.779C395.78 302.141 412.107 313.61 422 335C427.067 346.755 430.682 359.066 434.228 371.347C435.018 374.061 435.831 376.767 436.648 379.473C440.207 391.327 443.417 403.25 446.438 415.25C446.707 416.311 446.707 416.311 446.981 417.394C447.492 419.412 447.995 421.432 448.496 423.453C448.787 424.62 449.077 425.787 449.377 426.989C450 430 450 430 450 434C448.982 434.158 448.982 434.158 447.943 434.32C418.791 437.432 418.791 437.432 392 448C391.01 448 390.02 448 389 448C388.424 442.469 387.855 436.937 387.291 431.405C387.099 429.526 386.905 427.647 386.709 425.769C386.427 423.056 386.15 420.342 385.875 417.629C385.744 416.386 385.744 416.386 385.61 415.118C384.087 399.901 384.087 399.901 387 393.438C387.557 392.167 387.557 392.167 388.125 390.871C388.414 390.254 388.702 389.636 389 389C386.525 391.97 386.525 391.97 384 395C383 393 382 391 381 389C379.228 390.772 379.87 393.332 379.867 395.73C379.865 396.919 379.863 398.108 379.861 399.333C379.866 400.605 379.87 401.877 379.875 403.188C379.88 405.116 379.88 405.116 379.885 407.083C379.959 420.575 381.075 433.655 383 447C375.528 445.763 368.284 444.118 360.996 442.066C359.49 441.649 359.49 441.649 357.954 441.222C354.78 440.34 351.609 439.451 348.438 438.562C346.308 437.97 344.179 437.378 342.049 436.787C331.368 433.814 331.368 433.814 327.631 432.747C325.826 432.235 324.018 431.735 322.206 431.248C321.316 430.999 320.425 430.751 319.508 430.496C318.713 430.28 317.918 430.064 317.098 429.841C314.791 428.916 313.687 427.785 312 426C310.055 425.826 310.055 425.826 307.875 426.125C291.921 426.49 274.752 417.449 259.982 412.066C252.681 409.262 252.681 409.262 245 409C242.057 410.788 242.057 410.788 239.375 413.25C238.455 414.039 237.534 414.828 236.586 415.641C234.324 417.704 232.139 419.81 230 422C229.01 421.67 228.02 421.34 227 421C226.221 418.329 225.637 415.787 225.125 413.062C224.781 411.392 224.433 409.723 224.082 408.055C223.814 406.778 223.814 406.778 223.542 405.476C221.044 394.057 217.403 382.881 213.978 371.715C213.386 369.786 212.798 367.855 212.21 365.925C211.839 364.727 211.468 363.53 211.086 362.297C210.592 360.693 210.592 360.693 210.087 359.058C208.96 355.888 207.506 353.004 206 350C206 349.34 206 348.68 206 348C203.438 347.353 200.875 346.707 198.312 346.062C197.591 345.88 196.87 345.698 196.127 345.51C192.432 344.582 188.747 343.702 185 343C185.968 337.646 187.783 332.769 189.688 327.688C190.014 326.775 190.341 325.863 190.678 324.924C192.972 318.805 195.714 313.933 200 309C200.499 308.404 200.998 307.808 201.512 307.194C206.509 301.69 212.659 298.529 219.188 295.125C220.267 294.545 221.347 293.965 222.459 293.367C231.095 288.779 231.095 288.779 235 288C235.083 289.072 235.165 290.145 235.25 291.25C236.097 295.486 236.935 296.171 240 299C246.417 305.59 248.109 310.815 248 320C251.052 318.889 252.801 318.211 255.062 315.812C255.702 315.214 256.341 314.616 257 314C259.25 314.25 259.25 314.25 261 315C260.01 313.02 260.01 313.02 259 311C263.127 314.774 266.764 318.805 269 324C268.562 326.5 268.562 326.5 267 329C263.544 334.85 262.432 339.19 263 346C263.66 346.33 264.32 346.66 265 347C264.876 346.092 264.752 345.185 264.625 344.25C264.683 337.068 268.753 330.345 273.59 325.297C275.337 323.743 277.114 322.221 278.926 320.742C281.143 318.88 281.893 317.983 282.205 315.121C282.242 314.377 282.279 313.633 282.316 312.867C282.358 312.062 282.4 311.256 282.443 310.426C282.483 309.584 282.522 308.742 282.562 307.875C282.627 306.601 282.627 306.601 282.693 305.301C282.8 303.201 282.9 301.1 283 299C287.602 303.265 291.124 308.083 294.75 313.188C295.339 314.007 295.928 314.826 296.535 315.67C300.843 321.686 300.843 321.686 302 324C303.94 323.744 303.94 323.744 306 323C307.604 320.489 308.939 318.096 310.25 315.438C310.642 314.675 311.034 313.912 311.438 313.126C313.351 309.383 315.194 305.611 316.977 301.805C321.546 292.142 327.078 284.144 334 276Z" fill="#FAFAFA"/>
<path d="M70 335C84.879 334.775 99.5493 335.378 114.375 336.625C115.427 336.711 116.478 336.798 117.561 336.887C137.561 338.55 157.31 341.193 177.071 344.665C179.925 345.161 182.783 345.626 185.641 346.098C187.449 346.416 189.256 346.737 191.062 347.063C191.818 347.188 192.573 347.314 193.351 347.443C198.224 348.4 201.743 350.28 205 354C206.398 356.73 207.198 359.539 208 362.492C208.244 363.323 208.487 364.155 208.738 365.011C209.512 367.669 210.256 370.334 211 373C211.498 374.726 211.998 376.452 212.5 378.177C214.035 383.483 215.522 388.802 217 394.125C217.261 395.062 217.522 396 217.791 396.965C221.603 410.664 225.209 424.379 228.368 438.245C229.503 443.192 230.694 448.126 231.875 453.063C232.289 454.803 232.703 456.544 233.117 458.285C233.554 460.124 233.554 460.124 234 462C233.965 461.013 233.93 460.025 233.895 459.008C233.867 457.726 233.84 456.445 233.812 455.125C233.778 453.849 233.743 452.573 233.707 451.258C233.804 450.183 233.9 449.108 234 448C237 446 237 446 239.188 446.375C239.786 446.581 240.384 446.788 241 447C240.959 447.784 240.918 448.568 240.875 449.375C240.713 452.161 240.713 452.161 243 454C247.825 453.897 251.131 452.522 255.438 450.375C260.293 448.106 263.834 447.278 269 449C273.06 450.541 277.042 452.213 281 454C278.47 455.686 276.633 456.6 273.824 457.586C273.003 457.875 272.182 458.164 271.336 458.462C270.462 458.764 269.588 459.065 268.688 459.375C267.79 459.685 266.892 459.995 265.967 460.315C239.7 469.303 239.7 469.303 225.328 466.746C216.139 465.211 206.911 464.136 197.652 463.133C196.911 463.052 196.17 462.972 195.407 462.889C191.525 462.47 187.642 462.054 183.759 461.64C178.878 461.12 173.999 460.591 169.12 460.06C168.309 459.972 167.499 459.883 166.664 459.793C165.035 459.615 163.406 459.438 161.777 459.261C159.359 458.997 156.941 458.735 154.523 458.472C129.126 455.713 129.126 455.713 118.498 454.487C116.769 454.29 115.039 454.096 113.308 453.906C110.972 453.649 108.639 453.379 106.305 453.105C105.046 452.963 103.788 452.82 102.492 452.673C96.746 451.566 93.1625 450.684 89.74 445.725C87.1172 439.589 86.2531 432.94 85.1602 426.398C84.9099 424.957 84.6585 423.516 84.4061 422.075C83.7442 418.277 83.0975 414.478 82.454 410.677C81.8154 406.922 81.1619 403.17 80.5098 399.418C79.1088 391.337 77.7318 383.252 76.3658 375.165C75.999 372.994 75.6317 370.823 75.2643 368.652C74.6776 365.182 74.0933 361.712 73.5111 358.241C73.1939 356.351 72.8756 354.46 72.5571 352.57C71.5817 346.723 70.6755 340.89 70 335Z" fill="#FAFAFA"/>
<path d="M228.355 143.109C229.757 143.426 229.757 143.426 231.187 143.75C235.448 144.608 239.503 145.122 243.85 145.25C251.439 145.483 257.552 146.925 264.687 149.723C273.077 152.958 281.018 154.537 290 154C289.835 153.237 289.67 152.474 289.5 151.687C289 149 289 149 289 146C289.608 146.254 290.217 146.508 290.844 146.77C297.372 149.333 303.678 150.848 310.604 151.784C313.515 152.237 315.582 152.637 317.836 154.594C319.456 157.942 320.308 161.393 321.125 165C321.378 166.067 321.378 166.067 321.637 167.156C322.098 169.103 322.549 171.051 323 173C323.265 173.952 323.265 173.952 323.534 174.923C324.068 177.301 324.212 179.549 324.316 181.984C324.358 182.919 324.4 183.854 324.443 184.816C324.483 185.784 324.522 186.753 324.562 187.75C324.606 188.734 324.649 189.717 324.693 190.73C324.799 193.154 324.901 195.577 325 198C328.176 196.195 330.781 194.375 333.375 191.812C336.128 189.396 336.927 189.011 340.75 188.438C344.236 189.041 344.884 189.347 347 192C349.258 197.904 349.731 204.759 349 211C347.615 214.023 346.331 215.669 344 218C341.836 218.195 341.836 218.195 339.375 218.125C338.558 218.107 337.74 218.089 336.898 218.07C336.272 218.047 335.645 218.024 335 218C335.066 218.723 335.131 219.446 335.199 220.191C334.952 223.676 333.879 225.149 331.812 227.938C331.168 228.809 330.523 229.68 329.859 230.578C329.246 231.377 328.632 232.177 328 233C327.572 233.572 327.144 234.145 326.703 234.734C323.814 238.415 320.398 241.316 316.859 244.336C314.598 246.36 312.787 248.551 311 251C310.381 251.66 309.762 252.32 309.125 253C307.697 255.003 307.697 255.003 308.625 257.5C309.92 259.854 311.304 261.919 313 264C311.448 268.268 308.236 270.522 304.75 273.188C304.134 273.667 303.518 274.147 302.883 274.641C297.504 278.763 291.872 282.357 286.059 285.832C281.991 288.715 278.481 291.55 277.477 296.668C277.526 297.499 277.575 298.331 277.625 299.188C277.675 300.446 277.675 300.446 277.727 301.73C277.943 304.162 277.943 304.162 279 307C279.532 310.12 279.652 312.892 279 316C277.017 318.785 274.738 320.958 272 323C271.67 323 271.34 323 271 323C270.732 321.742 270.464 320.484 270.187 319.188C268.266 313.245 264.084 309.75 259.594 305.676C254.457 300.376 251.925 293.251 251 286C251.178 280.284 252.082 274.636 253 269C254.039 268.963 255.078 268.925 256.148 268.887C269.187 268.752 269.187 268.752 280.699 263.586C282.226 261.917 282.226 261.917 283 259C281.104 259.311 279.208 259.624 277.312 259.938C275.729 260.199 275.729 260.199 274.113 260.465C272.233 260.788 270.356 261.141 268.492 261.551C257.818 263.475 247.569 262.07 238.375 256.312C227.87 248.759 221.291 239.926 219 227C218.731 223.142 218.743 219.3 218.77 215.434C218.77 214.323 218.77 213.213 218.771 212.068C218.774 209.718 218.782 207.367 218.794 205.016C218.812 201.501 218.815 197.986 218.814 194.471C218.83 183.344 218.961 172.219 219.324 161.098C219.346 160.148 219.368 159.199 219.39 158.221C219.582 153.339 219.896 149.994 223 146C223.675 145.08 223.675 145.08 224.363 144.141C226 143 226 143 228.355 143.109Z" fill="#FAFAFA"/>
<path d="M325.75 109.687C328.332 111.256 330.746 112.791 333.078 114.711C335.35 116.235 336.327 116.225 339 115.937C342.094 115.822 342.739 115.815 345.375 117.687C347.043 120.061 348.041 122.271 349 125C349.33 125.33 349.66 125.66 350 126C349.845 127.609 349.845 127.609 349.687 129.25C349.611 133.517 350.954 136.441 352.812 140.25C357.411 149.751 359.247 158.185 359.375 168.688C359.389 169.471 359.403 170.255 359.417 171.063C359.36 178.021 357.884 184.174 354 190C354.161 192.233 354.161 192.233 354.812 194.625C355.008 195.513 355.204 196.401 355.406 197.316C355.602 198.202 355.798 199.088 356 200C357.329 206.632 357.123 211.874 354 218C351.839 220.485 349.642 222.465 347.125 224.562C346.754 225.037 346.382 225.511 346 226C346.186 226.639 346.371 227.279 346.562 227.937C346.779 228.958 346.779 228.958 347 230C345.015 232.673 343.669 233.82 340.437 234.687C339.633 234.791 338.829 234.894 338 235C337.01 235.33 336.02 235.66 335 236C334.01 235.67 333.02 235.34 332 235C331.776 235.715 331.551 236.431 331.32 237.168C329.704 240.635 327.626 242.667 324.875 245.312C323.965 246.196 323.055 247.079 322.117 247.988C321.418 248.652 320.72 249.316 320 250C321.65 250.33 323.3 250.66 325 251C324.34 251.33 323.68 251.66 323 252C323 252.66 323 253.32 323 254C320.36 254.33 317.72 254.66 315 255C315 257.31 315 259.62 315 262C316.176 261.01 316.176 261.01 317.375 260C320 258 320 258 322 258C320.017 269.093 305.387 278.163 296.75 284.25C296.172 284.65 295.594 285.05 294.998 285.462C291.152 288.126 287.558 290.96 284 294C284.99 296.475 284.99 296.475 286 299C285.34 299.33 284.68 299.66 284 300C284.009 301.134 284.018 302.269 284.027 303.437C283.863 317.146 283.863 317.146 279.75 321.75C278.537 322.874 277.289 323.963 276 325C269.448 330.928 265.577 338.149 265 347C264.01 346.67 263.02 346.34 262 346C261.447 339.147 262.459 335.209 265.906 329.262C267.29 326.819 267.29 326.819 267 323C264.447 317.487 260.829 312.692 256.937 308.062C252.543 302.732 248 296.122 248 289C247.34 289 246.68 289 246 289C246.419 283.943 247.02 279.703 249 275C249.381 272.674 249.725 270.341 250 268C249.01 268 248.02 268 247 268C246.67 268.66 246.34 269.32 246 270C246 269.34 246 268.68 246 268C245.285 267.898 244.569 267.796 243.832 267.691C233.45 265.157 224.498 256.095 218.75 247.437C212.007 235.108 211.399 222.443 211.625 208.75C211.636 207.082 211.646 205.414 211.655 203.746C211.757 192.483 212.33 181.304 213.639 170.11C214.383 164.272 214.383 164.272 212.105 159.055C211.411 158.377 210.716 157.699 210 157C208.21 151.552 208.92 146.933 211.309 141.824C212.236 139.702 212.236 139.702 212 136C211.67 135.278 211.34 134.556 211 133.812C209.616 129.919 209.478 126.097 210 122C210.66 121.01 211.32 120.02 212 119C212.66 119 213.32 119 214 119C214.103 118.299 214.206 117.597 214.312 116.875C215.118 113.507 216.168 110.944 218 108C221.536 106.256 225.013 105.559 228.875 104.875C234.562 103.741 239.683 102.028 245.083 99.929C271.829 89.692 301.226 95.6357 325.75 109.687ZM222.812 145.188C220.562 148.679 219.876 151.305 219.695 155.371C219.654 156.259 219.614 157.146 219.572 158.061C219.534 159.028 219.496 159.996 219.457 160.992C219.416 162.008 219.374 163.023 219.331 164.07C218.906 175.266 218.744 186.461 218.705 197.665C218.693 199.99 218.673 202.314 218.643 204.639C218.03 228.04 218.03 228.04 229 248C229.501 248.603 230.003 249.207 230.52 249.828C236.215 256.202 244.491 260.829 253 262C260.404 262.408 266.889 262.015 274 260C276.992 259.572 279.989 259.265 283 259C281.315 262.668 280.227 263.884 276.562 265.75C271.223 267.624 266.394 268.258 260.75 268.562C259.632 268.627 259.632 268.627 258.492 268.693C256.662 268.799 254.831 268.9 253 269C252.909 270.087 252.909 270.087 252.816 271.195C252.733 272.162 252.649 273.129 252.562 274.125C252.481 275.076 252.4 276.028 252.316 277.008C252 280 252 280 251.359 282.961C250.578 289.57 253.68 296.457 256.687 302.25C258.849 304.821 261.122 307.01 263.562 309.312C267.865 313.474 269.801 317.171 271 323C272.146 322.021 273.292 321.042 274.437 320.062C275.076 319.517 275.714 318.972 276.371 318.41C277.27 317.632 278.159 316.841 279 316C279.099 314.544 279.13 313.084 279.125 311.625C279.128 310.834 279.13 310.042 279.133 309.227C279.086 306.827 279.086 306.827 278 304C277.691 301.766 277.691 301.766 277.562 299.25C277.502 298.43 277.441 297.61 277.379 296.766C278.659 291.065 283.154 287.378 287.883 284.262C289.291 283.395 290.706 282.537 292.125 281.687C299.657 277.015 306.373 271.886 313 266C311.874 263.668 310.742 261.632 309.25 259.5C308 257 308 257 308.562 255.062C309.037 254.382 309.511 253.701 310 253C310.557 252.072 311.114 251.144 311.687 250.187C315.231 245.304 319.387 241.225 324.125 237.5C327.42 234.635 329.637 231.636 332 228C332.598 227.134 333.196 226.267 333.812 225.375C335.15 222.7 335.253 220.951 335 218C335.603 218.046 336.207 218.093 336.828 218.141C342.002 218.457 342.002 218.457 346.5 216.188C350.119 210.91 349.48 204.558 348.656 198.449C347.612 193.027 347.612 193.027 344 189C340.759 188.078 340.759 188.078 337 189C334.471 190.891 332.257 192.93 330.016 195.152C328 197 328 197 325 198C324.974 196.681 324.948 195.363 324.922 194.004C324.668 185.029 324.222 176.319 322.125 167.562C321.964 166.885 321.802 166.207 321.636 165.508C320.562 161.362 319.415 157.55 317 154C313.772 152.623 313.772 152.623 310 152C308.674 151.674 307.35 151.34 306.027 151C303.977 150.497 301.925 149.997 299.873 149.5C295.843 148.509 291.917 147.369 288 146C288.495 147.145 288.495 147.145 289 148.312C290 151 290 151 290 154C279.464 154.912 268.553 152.218 259 147.812C254.121 145.702 249.285 145.481 244.048 145.305C239.649 145.154 235.604 144.577 231.312 143.625C226.803 142.733 226.803 142.733 222.812 145.188Z" fill="#1E1E1E"/>
<path d="M292.914 457.867C297.706 460.69 297.706 460.69 299.475 462.556C301.691 464.654 304.332 465.086 307.19 465.977C313.277 468.193 318.96 471.431 324.688 474.437C326.08 475.162 327.473 475.887 328.866 476.611C336.692 480.689 344.462 484.859 352.188 489.125C360.653 493.799 369.232 498.227 377.875 502.562C378.474 502.865 379.074 503.167 379.691 503.478C386.028 506.669 392.289 509.683 399 512C399 515.3 399 518.6 399 522C397.433 521.992 397.433 521.992 395.834 521.984C372.468 521.879 349.113 522.022 325.75 522.437C324.581 522.457 323.412 522.477 322.207 522.497C310.693 522.694 299.223 522.963 287.733 523.77C281.487 524.155 275.234 524.255 268.978 524.389C257.849 524.632 246.844 525.021 235.781 526.333C229.785 527.012 223.846 527.187 217.812 527.187C216.508 527.189 216.508 527.189 215.178 527.19C209.135 527.135 209.135 527.135 208 526C208.065 524.288 208.203 522.579 208.375 520.875C208.465 519.944 208.555 519.014 208.648 518.055C208.887 515.983 209.178 513.916 209.516 511.858C210.05 507.605 210.126 503.501 210.098 499.223C210.096 498.411 210.095 497.6 210.093 496.764C210.088 494.197 210.075 491.63 210.062 489.062C210.057 487.312 210.053 485.561 210.049 483.811C210.038 479.54 210.021 475.27 210 471C211.534 471.031 211.534 471.031 213.098 471.063C216.954 471.137 220.81 471.182 224.667 471.22C226.324 471.24 227.981 471.267 229.638 471.302C240.164 471.518 249.084 470.975 259 467C260.138 466.546 261.277 466.092 262.45 465.624C267.19 463.68 271.898 461.666 276.598 459.627C277.741 459.145 278.884 458.664 280.062 458.168C281.085 457.727 282.107 457.287 283.16 456.833C286.934 455.726 289.391 456.271 292.914 457.867Z" fill="#FAFAFA"/>
<path d="M247 268C247.99 268 248.98 268 250 268C250.314 273.027 249.651 276.427 247.734 281.066C246.749 283.661 246.343 286.255 246 289C246.66 289 247.32 289 248 289C248.315 289.797 248.629 290.593 248.953 291.414C251.216 297.017 253.429 302.09 257 307C257.952 308.407 258.888 309.825 259.812 311.25C260.252 311.915 260.692 312.58 261.145 313.266C261.427 313.838 261.709 314.41 262 315C261.67 315.66 261.34 316.32 261 317C259.68 316.34 258.36 315.68 257 315C256.529 315.445 256.059 315.889 255.574 316.348C254.952 316.914 254.329 317.479 253.688 318.062C253.073 318.631 252.458 319.199 251.824 319.785C251.222 320.186 250.62 320.587 250 321C249.01 320.67 248.02 320.34 247 320C247.009 319.238 247.018 318.476 247.027 317.691C246.788 309.368 244.77 304.926 239 299C238.269 298.335 237.538 297.67 236.785 296.984C235 295 235 295 234.75 291.25C234.833 290.178 234.915 289.105 235 288C234.403 288.329 233.806 288.657 233.191 288.996C232.324 289.472 231.456 289.947 230.562 290.438C229.566 290.987 228.57 291.536 227.543 292.102C224.99 293.489 222.407 294.8 219.801 296.086C202.278 304.827 195.415 314.947 188.688 333.125C188.329 334.081 187.969 335.038 187.6 336.023C186.728 338.347 185.862 340.673 185 343C185.732 343.056 186.463 343.112 187.217 343.17C200.723 344.287 200.723 344.287 206 348C208.519 351.378 209.699 355.018 211 359C211.339 359.989 211.339 359.989 211.685 360.998C215.588 372.39 218.642 383.994 221.617 395.656C222.747 400.069 223.967 404.442 225.25 408.812C226.81 414.163 228.039 419.511 229 425C229.904 424.229 230.807 423.458 231.738 422.664C232.93 421.651 234.121 420.638 235.312 419.625C235.907 419.117 236.502 418.609 237.115 418.086C237.692 417.596 238.269 417.106 238.863 416.602C239.392 416.151 239.921 415.701 240.466 415.237C244.559 411.937 246.797 411.634 252 412C254.607 412.67 257.055 413.388 259.586 414.266C260.638 414.618 260.638 414.618 261.711 414.977C263.187 415.473 264.66 415.974 266.133 416.48C268.358 417.244 270.589 417.993 272.82 418.738C279.362 420.943 285.757 423.255 292.019 426.178C295.539 427.639 299.214 428.365 302.938 429.125C310.74 430.74 310.74 430.74 313 433C314.23 441.911 312.604 450.908 307.363 458.312C306.913 458.869 306.464 459.426 306 460C301.473 459.378 297.78 457.53 293.75 455.5C288.759 453.062 284.718 451.481 279.105 451.312C276.347 450.903 274.422 449.74 272 448.375C267.802 446.15 265.05 445.432 260.367 446.266C256.544 447.452 253.023 449.189 249.48 451.039C246.758 452.094 245.676 452.036 243 451C242.688 448.75 242.688 448.75 243 446C248.787 439.442 258.774 438.663 267 438C267 437.34 267 436.68 267 436C253.925 437.192 253.925 437.192 243 444C241.34 444.259 239.671 444.459 238 444.625C236.639 444.768 236.639 444.768 235.25 444.914C234.507 444.942 233.765 444.971 233 445C232 444 232 444 231.938 441.438C231.958 440.633 231.979 439.829 232 439C233.578 438.381 233.578 438.381 235.188 437.75C237.835 436.645 239.207 435.809 241.375 433.812C247.276 429.738 256.215 432.207 263 433C251.415 429.882 251.415 429.882 240.148 432.051C238.707 433.303 237.35 434.65 236 436C233.125 437.312 233.125 437.312 231 438C230.598 437.072 230.598 437.072 230.188 436.125C229.044 433.7 229.044 433.7 226 432C225.066 429.212 224.306 426.521 223.617 423.672C223.402 422.823 223.186 421.974 222.964 421.099C222.5 419.27 222.041 417.44 221.586 415.609C220.394 410.815 219.162 406.03 217.93 401.246C217.684 400.289 217.438 399.331 217.185 398.345C214.971 389.778 212.556 381.283 210 372.812C209.639 371.605 209.278 370.397 208.906 369.153C206.386 359.51 206.386 359.51 201.301 351.176C198.05 349.515 194.746 348.844 191.188 348.188C189.903 347.945 189.903 347.945 188.593 347.697C185.398 347.111 182.2 346.554 179 346C177.677 345.766 176.355 345.533 175.032 345.299C154.89 341.774 134.759 339.313 114.375 337.688C112.852 337.566 112.852 337.566 111.299 337.442C97.5437 336.36 83.7852 335.583 70 335C70.238 336.146 70.476 337.291 70.7212 338.472C73.3665 351.363 75.6407 364.3 77.8056 377.28C78.7785 383.102 79.7671 388.922 80.7539 394.742C81.1408 397.026 81.5277 399.309 81.9146 401.593C82.1902 403.219 82.1902 403.219 82.4715 404.879C82.8088 406.871 83.1456 408.863 83.4816 410.856C84.291 415.654 85.1103 420.451 85.9522 425.244C86.3009 427.246 86.6368 429.25 86.9722 431.255C88.1329 437.788 89.2542 443.451 93 449C98.1896 451.335 103.746 451.72 109.344 452.332C110.365 452.449 111.386 452.566 112.437 452.686C115.791 453.068 119.145 453.44 122.5 453.812C124.843 454.077 127.185 454.343 129.528 454.609C145.738 456.442 161.958 458.194 178.178 459.932C214.917 463.876 214.917 463.876 231.965 466.641C245.056 468.191 260 461.817 271.855 456.789C274.16 455.941 275.87 455.792 278.312 455.875C279.529 455.916 280.746 455.957 282 456C281 459 281 459 278.535 460.319C277.46 460.751 276.385 461.183 275.277 461.629C274.098 462.107 272.92 462.584 271.705 463.076C270.776 463.442 270.776 463.442 269.828 463.816C267.965 464.552 266.108 465.306 264.252 466.061C253.868 470.224 245.471 472.328 234.25 472.188C233.19 472.181 232.129 472.175 231.037 472.168C223.987 472.099 217.004 471.86 210 471C210.33 471.99 210.66 472.98 211 474C211.271 479.369 211.244 484.75 211.25 490.125C211.252 490.896 211.253 491.668 211.255 492.463C211.259 519.717 211.259 519.717 206 529C204.68 528.34 203.36 527.68 202 527C202 524.69 202 522.38 202 520C200.701 519.938 199.401 519.876 198.062 519.812C188.276 518.666 180.469 512.111 174 505C170.474 499.057 169.869 493.543 169.902 486.727C169.907 484.996 169.907 484.996 169.912 483.23C169.925 481.446 169.925 481.446 169.938 479.625C169.942 478.412 169.947 477.199 169.951 475.949C169.963 472.966 169.979 469.983 170 467C169.306 466.962 168.612 466.924 167.898 466.885C156.015 466.136 144.198 464.788 132.367 463.471C128.679 463.062 124.991 462.661 121.303 462.26C118.935 461.998 116.567 461.736 114.199 461.473C113.108 461.355 112.018 461.237 110.894 461.116C93.3197 459.134 93.3197 459.134 88.625 454.875C87.9985 454.336 87.372 453.797 86.7266 453.242C82.6172 447.906 81.4221 441.058 80.3086 434.555C80.1623 433.735 80.0159 432.915 79.8651 432.071C79.3808 429.34 78.9086 426.608 78.4375 423.875C78.0978 421.933 77.7579 419.992 77.418 418.051C74.4406 400.939 71.6261 383.799 68.8405 366.656C68.5005 364.566 68.1591 362.476 67.8174 360.386C67.174 356.447 66.5395 352.507 65.9063 348.566C65.7129 347.384 65.5195 346.201 65.3203 344.983C65.1457 343.886 64.971 342.789 64.791 341.658C64.6375 340.706 64.484 339.754 64.3258 338.772C63.9794 335.825 63.9446 332.966 64 330C85.1962 319.402 138.623 333.982 161.107 337.018C162.075 337.149 163.042 337.279 164.038 337.414C165.864 337.661 167.69 337.91 169.515 338.162C170.733 338.328 170.733 338.328 171.976 338.497C172.684 338.594 173.392 338.692 174.122 338.792C176.182 339.055 176.182 339.055 179 339C179.147 338.452 179.294 337.904 179.445 337.34C184.996 317.72 191.943 303.92 210.172 293.609C211.653 292.796 213.137 291.989 214.625 291.188C215.317 290.814 216.009 290.441 216.722 290.056C228.357 284 228.357 284 234 284C234.021 283.299 234.041 282.598 234.062 281.875C235.423 277.702 238.334 275.33 242 273C242.99 273 243.98 273 245 273C245 272.01 245 271.02 245 270C245.66 270 246.32 270 247 270C247 269.34 247 268.68 247 268Z" fill="#1E1E1E"/>
<path d="M318 434C322.971 434.623 327.722 435.608 332.559 436.926C333.265 437.115 333.972 437.304 334.7 437.498C336.947 438.099 339.192 438.705 341.438 439.312C344.373 440.102 347.309 440.89 350.246 441.676C350.974 441.871 351.703 442.066 352.453 442.267C364.128 445.381 375.866 448.223 387.625 451C396.491 453.108 405.281 455.348 414 458C405.537 454.893 405.537 454.893 397 452C400.262 449.19 403.251 448.159 407.391 447.062C408.659 446.725 409.928 446.387 411.234 446.039C411.896 445.868 412.558 445.697 413.24 445.521C415.205 445.012 417.165 444.488 419.125 443.961C428.342 441.518 437.61 439.643 447 438C447.075 442.567 447.129 447.134 447.165 451.702C447.18 453.249 447.2 454.796 447.226 456.342C447.522 474.153 445.876 492.481 433 506C428.06 510.95 423.332 512.589 416.375 512.688C400.523 512.302 386.704 504.19 373 497C372.237 496.602 371.475 496.203 370.689 495.792C366.875 493.798 363.068 491.79 359.266 489.773C355.289 487.67 351.296 485.599 347.297 483.539C325.175 472.14 325.175 472.14 315.406 466.355C312.977 464.887 312.977 464.887 310 464C310.289 463.428 310.577 462.855 310.875 462.266C315.514 452.922 317.03 444.287 318 434Z" fill="#FAFAFA"/>
<path d="M251 408C253.546 408.737 255.953 409.524 258.426 410.449C259.132 410.704 259.837 410.958 260.565 411.22C262.817 412.034 265.065 412.86 267.312 413.688C276.228 416.951 285.144 420.15 294.238 422.887C294.931 423.1 295.625 423.313 296.339 423.532C301.058 424.916 305.237 425.41 310.117 424.883C312 425 312 425 313.372 426.423C315.227 428.22 316.466 428.673 318.939 429.347C319.729 429.568 320.519 429.789 321.334 430.016C322.189 430.244 323.044 430.472 323.926 430.707C324.818 430.953 325.709 431.2 326.628 431.453C329.52 432.249 332.416 433.031 335.312 433.813C337.285 434.352 339.257 434.892 341.229 435.433C345.086 436.489 348.944 437.54 352.804 438.586C357.075 439.746 361.34 440.926 365.602 442.121C366.621 442.406 367.64 442.69 368.69 442.983C370.463 443.478 372.236 443.975 374.007 444.476C377.501 445.438 380.345 446 384 446C383.67 447.32 383.34 448.64 383 450C377.231 449.398 371.848 448.308 366.262 446.77C364.581 446.317 362.901 445.865 361.22 445.413C359.93 445.063 359.93 445.063 358.614 444.706C354.359 443.557 350.095 442.442 345.832 441.324C344.162 440.885 342.492 440.445 340.822 440.006C339.589 439.681 339.589 439.681 338.331 439.35C331.554 437.567 324.777 435.783 318 434C318.02 434.715 318.041 435.43 318.062 436.167C318.228 446.294 316.473 455.908 310 464C310.816 464.161 310.816 464.161 311.648 464.324C314.534 465.154 316.967 466.416 319.629 467.809C320.736 468.385 321.843 468.962 322.983 469.556C324.176 470.183 325.369 470.81 326.562 471.438C327.8 472.084 329.037 472.73 330.275 473.376C336.195 476.467 342.105 479.578 348.01 482.697C351.029 484.289 354.051 485.876 357.073 487.461C359.31 488.637 361.545 489.817 363.778 491C367.367 492.899 370.963 494.785 374.561 496.665C375.994 497.416 377.425 498.171 378.853 498.93C393.082 506.485 407.475 513.486 424 511C431.597 508.082 436.481 501.841 440.148 494.793C445.861 481.844 446.48 467.973 446.688 454.063C446.721 452.493 446.755 450.923 446.791 449.354C446.875 445.569 446.942 441.785 447 438C451.75 436.875 451.75 436.875 454 438C453.387 440.962 452.746 442.381 451 445C450.756 447.664 450.756 447.664 450.875 450.672C450.892 451.804 450.909 452.937 450.927 454.103C450.951 455.307 450.975 456.51 451 457.75C451.161 476.481 450.416 493.554 437 508C429.388 515.421 422.938 517.197 412.348 517.102C409.816 516.992 407.45 516.653 405 516C404.67 518.97 404.34 521.94 404 525C403.316 525.008 402.632 525.016 401.927 525.025C368.093 525.43 334.262 525.945 300.438 526.875C299.702 526.895 298.967 526.915 298.209 526.936C277.167 527.52 256.185 528.46 235.204 530.229C225.414 531.049 215.714 531.807 206 530C206.33 528.35 206.66 526.7 207 525C207.66 525.33 208.32 525.66 209 526C211.97 526.129 214.904 526.19 217.875 526.188C218.779 526.187 219.683 526.187 220.615 526.187C226.491 526.139 232.231 525.753 238.062 525.063C249.069 523.77 260.095 523.578 271.164 523.342C277.941 523.194 284.685 522.984 291.449 522.508C302.973 521.74 314.517 521.629 326.062 521.438C327.264 521.417 328.465 521.396 329.702 521.374C345.676 521.099 361.649 520.899 377.625 520.875C378.848 520.871 378.848 520.871 380.096 520.867C382.369 520.861 384.641 520.863 386.914 520.867C388.172 520.868 389.429 520.869 390.725 520.871C393.614 520.985 396.195 521.33 399 522C399 518.7 399 515.4 399 512C398.268 511.876 397.536 511.752 396.781 511.624C394.099 511.022 391.972 510.206 389.5 509.023C388.628 508.608 387.756 508.192 386.857 507.764C385.914 507.306 384.971 506.847 384 506.375C383.001 505.893 382.002 505.411 380.973 504.914C362.854 496.101 345.023 486.717 327.365 477.018C322.296 474.239 317.217 471.492 312.062 468.875C311.043 468.357 310.023 467.839 308.973 467.305C305.926 465.886 305.926 465.886 302.25 464.941C298.618 463.889 297.535 462.699 295 460C291.282 457.604 289.588 456.953 285.125 457.313C283.578 457.653 283.578 457.653 282 458C282 457.34 282 456.68 282 456C280.02 455.505 280.02 455.505 278 455C278.33 454.67 278.66 454.34 279 454C269.292 449.348 269.292 449.348 259 450C256.183 451.257 253.402 452.549 250.648 453.941C247.846 455.062 245.986 455.297 243 455C241.188 453.813 241.188 453.813 240 452C239.812 449.313 239.812 449.313 240 447C237.03 447.495 237.03 447.495 234 448C234.248 449.392 234.248 449.392 234.5 450.813C235.237 455.857 235.083 460.914 235 466C232.271 461.004 231.234 455.552 229.875 450.063C229.459 448.435 229.459 448.435 229.035 446.775C228.643 445.202 228.643 445.202 228.242 443.598C228.004 442.644 227.765 441.69 227.519 440.707C227.012 438.064 226.903 435.683 227 433C227.33 433 227.66 433 228 433C228.33 431.35 228.66 429.7 229 428C229.33 428 229.66 428 230 428C230.66 430.97 231.32 433.94 232 437C236.354 436.031 236.354 436.031 239.25 432.938C239.498 432.298 239.745 431.659 240 431C247.78 427.11 259.134 431.071 267 433C267 433.33 267 433.66 267 434C266.345 433.938 265.69 433.877 265.016 433.813C262.012 433.549 259.007 433.337 256 433.125C254.97 433.027 253.94 432.929 252.879 432.828C247.361 432.477 243.942 432.488 239.5 435.992C238.912 436.55 238.324 437.108 237.719 437.683C236 439 236 439 232 439C232.33 440.65 232.66 442.3 233 444C239.508 443.853 243.781 442.92 249.141 439.211C254.653 435.621 260.683 435.742 267 436C267 436.66 267 437.32 267 438C265.264 438.364 265.264 438.364 263.492 438.734C261.953 439.072 260.414 439.411 258.875 439.75C257.734 439.986 257.734 439.986 256.57 440.227C251.583 441.344 247.972 442.732 244 446C243.498 448.67 243.498 448.67 244 451C249.356 450.566 253.502 448.451 258.219 446.059C262.74 444.338 265.745 444.488 270.219 446.313C273.5 448 273.5 448 276.781 449.688C279.863 451.193 279.863 451.193 282.863 450.938C287.402 451.028 290.697 452.962 294.688 455C296.189 455.755 297.693 456.505 299.199 457.25C299.858 457.585 300.516 457.92 301.194 458.266C303.138 459.188 303.138 459.188 306 459C310.717 449.977 312.299 443.256 312 433C305.362 430.671 298.669 428.845 291.844 427.16C289.053 426.391 286.511 425.379 283.883 424.168C277.872 421.409 271.64 419.35 265.375 417.25C264.186 416.839 262.998 416.428 261.773 416.004C260.618 415.616 259.463 415.228 258.273 414.828C257.236 414.477 256.199 414.125 255.13 413.763C251.611 412.905 248.61 412.749 245 413C242.034 414.77 242.034 414.77 239.438 417.25C235.739 420.485 232.168 423.409 228 426C228 424.68 228 423.36 228 422C230.195 419.816 230.195 419.816 233.125 417.563C236.294 415.104 239.388 412.682 242.312 409.938C245.65 407.532 246.944 407.663 251 408Z" fill="#1E1E1E"/>
<path d="M252 412C254.607 412.67 257.055 413.388 259.586 414.266C260.287 414.5 260.988 414.735 261.711 414.977C263.186 415.473 264.66 415.974 266.133 416.48C268.358 417.244 270.589 417.993 272.82 418.738C279.362 420.943 285.757 423.255 292.019 426.178C295.539 427.639 299.214 428.365 302.937 429.125C310.74 430.74 310.74 430.74 313 433C314.23 441.911 312.604 450.908 307.363 458.313C306.913 458.869 306.464 459.426 306 460C301.473 459.378 297.78 457.53 293.75 455.5C288.759 453.062 284.718 451.481 279.105 451.313C276.347 450.903 274.422 449.74 272 448.375C267.802 446.15 265.05 445.432 260.367 446.266C256.544 447.452 253.023 449.189 249.48 451.039C246.758 452.094 245.676 452.036 243 451C242.687 448.75 242.687 448.75 243 446C248.787 439.442 258.774 438.663 267 438C267 437.34 267 436.68 267 436C253.925 437.192 253.925 437.192 243 444C241.34 444.259 239.671 444.459 238 444.625C237.092 444.72 236.185 444.816 235.25 444.914C234.136 444.957 234.136 444.957 233 445C232 444 232 444 231.937 441.438C231.958 440.633 231.979 439.829 232 439C233.052 438.588 234.104 438.175 235.187 437.75C237.835 436.645 239.207 435.809 241.375 433.813C247.276 429.738 256.215 432.207 263 433C251.415 429.882 251.415 429.882 240.148 432.051C238.707 433.303 237.35 434.65 236 436C234.355 436.719 232.69 437.395 231 438C229.376 433.54 228.467 429.749 229 425C233.966 417.709 243.331 411.39 252 412Z" fill="#FAFAFA"/>
<path d="M325 256C329.344 259.847 333.222 264.386 335 270C333.986 274.113 331.861 276.463 328.938 279.438C319.905 289.252 314.054 300.403 308.629 312.48C307 316 307 316 305 319C300.571 317.455 298.376 313.927 295.688 310.312C291.755 305.153 287.755 300.438 283 296C284.457 292.481 286.261 290.701 289.25 288.375C290.588 287.331 290.588 287.331 291.953 286.266C294.669 284.246 297.42 282.304 300.2 280.377C309.985 273.571 318.213 265.876 325 256Z" fill="#FAFAFA"/>
<path d="M174 466C174.581 466.06 175.162 466.12 175.761 466.181C182.544 466.871 189.332 467.479 196.125 468.062C197.177 468.153 198.229 468.244 199.312 468.338C201.875 468.559 204.437 468.78 207 469C207.025 473.677 207.043 478.355 207.055 483.032C207.06 484.62 207.067 486.207 207.075 487.795C207.17 505.473 207.17 505.473 206 512C202.913 513.543 200.313 513.736 197 513C189.925 509.233 182.898 503.829 179.902 496.207C178.964 492.872 178.471 489.688 178.062 486.25C177.36 480.942 176.306 476.054 174.586 470.988C174 469 174 469 174 466Z" fill="#FAFAFA"/>
<path d="M377.375 520.875C378.573 520.871 378.573 520.871 379.794 520.867C387.59 520.847 395.268 520.9 403 522C403 522.66 403 523.32 403 524C402.203 524.01 401.405 524.021 400.584 524.031C393.079 524.129 385.574 524.232 378.07 524.339C374.212 524.395 370.353 524.448 366.495 524.497C362.773 524.545 359.051 524.597 355.329 524.653C353.908 524.673 352.486 524.692 351.064 524.709C349.077 524.733 347.089 524.764 345.102 524.795C343.403 524.818 343.403 524.818 341.67 524.842C339.027 524.823 339.027 524.823 337 526C335.007 526.134 333.01 526.206 331.014 526.25C329.113 526.295 329.113 526.295 327.174 526.342C326.491 526.356 325.808 526.37 325.104 526.385C322.939 526.43 320.774 526.482 318.609 526.535C315.515 526.612 312.42 526.686 309.326 526.759C285.35 527.33 261.434 528.024 237.527 530.035C215.941 531.849 215.941 531.849 206 530C206.33 528.35 206.66 526.7 207 525C207.66 525.33 208.32 525.66 209 526C211.97 526.129 214.904 526.19 217.875 526.188C218.779 526.187 219.683 526.187 220.615 526.187C226.491 526.139 232.231 525.753 238.062 525.063C249.069 523.77 260.095 523.578 271.164 523.342C277.941 523.194 284.685 522.984 291.449 522.508C302.973 521.74 314.517 521.629 326.062 521.438C327.866 521.406 327.866 521.406 329.706 521.374C345.595 521.101 361.483 520.899 377.375 520.875Z" fill="#1E1E1E"/>
<path d="M247 268C247.99 268 248.98 268 250 268C250.314 273.027 249.651 276.427 247.734 281.066C246.749 283.661 246.343 286.255 246 289C246.66 289 247.32 289 248 289C248.315 289.797 248.629 290.593 248.953 291.414C251.216 297.017 253.429 302.09 257 307C257.952 308.407 258.888 309.825 259.812 311.25C260.252 311.915 260.692 312.58 261.145 313.266C261.427 313.838 261.709 314.41 262 315C261.505 315.99 261.505 315.99 261 317C259.68 316.34 258.36 315.68 257 315C256.529 315.445 256.059 315.889 255.574 316.348C254.952 316.914 254.329 317.479 253.688 318.062C253.073 318.631 252.458 319.199 251.824 319.785C251.222 320.186 250.62 320.587 250 321C249.01 320.67 248.02 320.34 247 320C247.009 319.238 247.018 318.476 247.027 317.691C246.788 309.368 244.77 304.926 239 299C238.269 298.335 237.538 297.67 236.785 296.984C235 295 235 295 234.75 291.25C234.833 290.178 234.915 289.105 235 288C230.05 290.475 230.05 290.475 225 293C225 292.34 225 291.68 225 291C223.645 291.559 223.645 291.559 222.262 292.129C221.082 292.602 219.903 293.075 218.688 293.562C217.516 294.038 216.344 294.514 215.137 295.004C212 296 212 296 209 295C216.518 290.035 224.82 284.744 234 284C234.021 283.299 234.041 282.598 234.062 281.875C235.423 277.702 238.334 275.33 242 273C242.99 273 243.98 273 245 273C245 272.01 245 271.02 245 270C245.66 270 246.32 270 247 270C247 269.34 247 268.68 247 268Z" fill="#1E1E1E"/>
<path d="M448 437C450.007 437.287 452.009 437.619 454 438C453.387 440.962 452.746 442.381 451 445C450.756 447.664 450.756 447.664 450.875 450.672C450.892 451.804 450.909 452.937 450.927 454.103C450.951 455.307 450.975 456.51 451 457.75C451.161 476.481 450.416 493.554 437 508C429.388 515.421 422.938 517.197 412.348 517.102C409.816 516.992 407.45 516.653 405 516C404.67 518.97 404.34 521.94 404 525C382.55 525 361.1 525 339 525C339 524.67 339 524.34 339 524C360.12 524 381.24 524 403 524C401.68 523.34 400.36 522.68 399 522C399 518.04 399 514.08 399 510C400.155 510.165 401.31 510.33 402.5 510.5C416.271 512.332 416.271 512.332 429.125 508.5C440.452 499.266 444.101 485.995 446 472C446.516 466.055 446.556 460.088 446.625 454.125C446.662 451.811 446.702 449.497 446.748 447.183C446.775 445.759 446.796 444.336 446.811 442.912C446.889 438.111 446.889 438.111 448 437Z" fill="#1E1E1E"/>
<path d="M239.188 446.375C240.085 446.684 240.085 446.684 241 447C240.959 447.784 240.918 448.568 240.875 449.375C240.713 452.161 240.713 452.161 243 454C247.825 453.897 251.131 452.522 255.438 450.375C260.293 448.106 263.834 447.278 269 449C273.06 450.541 277.042 452.213 281 454C278.47 455.686 276.633 456.6 273.824 457.586C273.003 457.875 272.182 458.164 271.336 458.462C270.462 458.764 269.588 459.065 268.688 459.375C267.341 459.84 267.341 459.84 265.967 460.315C238.955 469.558 238.955 469.558 228 467C228 466.67 228 466.34 228 466C229.65 466 231.3 466 233 466C234.582 461.157 233.92 456.138 233.742 451.117C233.827 450.089 233.912 449.06 234 448C237 446 237 446 239.188 446.375Z" fill="#FAFAFA"/>
<path d="M323 252C326.862 252.331 328.984 253.409 331.598 256.281C340.505 267.198 340.505 267.198 340 274C340.66 274 341.32 274 342 274C342 274.66 342 275.32 342 276C339.69 275.34 337.38 274.68 335 274C335.495 274.99 335.495 274.99 336 276C335.34 276.598 334.68 277.196 334 277.812C325.937 285.989 320.945 295.696 316.026 305.905C314.298 309.433 312.468 312.906 310.625 316.375C310.291 317.011 309.957 317.648 309.613 318.304C308.253 320.859 307.059 322.941 305 325C303.074 324.93 303.074 324.93 301 324C299.395 321.883 299.395 321.883 297.812 319.125C294.571 313.727 290.852 309.056 286.723 304.312C285 302 285 302 285 299C292.381 302.116 297.262 310.117 301.773 316.469C302.941 318.145 302.941 318.145 305 319C305.258 318.339 305.516 317.677 305.781 316.996C311.339 303.333 317.893 290.998 327.707 279.898C328.546 278.942 329.385 277.985 330.25 277C331.402 275.763 331.402 275.763 332.578 274.5C334.342 272.027 334.342 272.027 333.43 268.992C332.085 266.178 330.657 263.682 328.875 261.125C328.336 260.344 327.797 259.563 327.242 258.758C326.832 258.178 326.422 257.598 326 257C324.68 257.99 323.36 258.98 322 260C322 259.34 322 258.68 322 258C321.216 258.66 320.433 259.32 319.625 260C317 262 317 262 315 262C314.619 259.674 314.287 257.339 314 255C315 254 315 254 316.848 253.902C318.898 253.935 320.949 253.967 323 254C323 253.34 323 252.68 323 252Z" fill="#1E1E1E"/>
<path d="M380 388C382.248 390.052 383.002 391.007 384 394C385.65 392.02 387.3 390.04 389 388C389 391.319 388.018 393.489 386.656 396.477C384.171 406.033 386.879 417.27 387.934 426.896C388.681 433.964 389.226 440.891 389 448C390.98 447.34 392.96 446.68 395 446C392.938 448.5 392.938 448.5 390 451C386.188 451.312 386.188 451.312 383 451C383 450.34 383 449.68 383 449C382.34 448.67 381.68 448.34 381 448C381.99 448 382.98 448 384 448C383.692 447.451 383.384 446.902 383.066 446.336C377.361 433.838 378.911 416.673 378.875 403.25C378.87 401.987 378.866 400.723 378.861 399.422C378.863 398.236 378.865 397.05 378.867 395.828C378.868 394.755 378.869 393.681 378.871 392.575C379 390 379 390 380 388Z" fill="#1E1E1E"/>
<path d="M229 428C229.33 428 229.66 428 230 428C230.66 430.97 231.32 433.94 232 437C236.354 436.031 236.354 436.031 239.25 432.938C239.621 431.978 239.621 431.978 240 431C247.78 427.11 259.134 431.071 267 433C267 433.33 267 433.66 267 434C266.345 433.938 265.69 433.877 265.016 433.813C262.012 433.549 259.007 433.337 256 433.125C254.97 433.027 253.94 432.929 252.879 432.828C247.361 432.477 243.942 432.488 239.5 435.992C238.912 436.55 238.324 437.108 237.719 437.683C236 439 236 439 232 439C232.33 440.65 232.66 442.3 233 444C239.508 443.853 243.781 442.92 249.141 439.211C254.653 435.621 260.683 435.742 267 436C267 436.66 267 437.32 267 438C265.264 438.364 265.264 438.364 263.492 438.734C261.953 439.072 260.414 439.411 258.875 439.75C258.114 439.907 257.354 440.065 256.57 440.227C251.583 441.344 247.972 442.732 244 446C243.498 448.67 243.498 448.67 244 451C249.356 450.566 253.502 448.451 258.219 446.059C262.823 444.306 265.843 444.557 270.43 446.312C271.567 446.869 272.704 447.426 273.875 448C275.027 448.557 276.18 449.114 277.367 449.688C278.67 450.337 278.67 450.337 280 451C279.67 451.66 279.34 452.32 279 453C275.45 452.567 272.821 451.915 269.563 450.375C264.459 448.405 261.262 449.006 256.289 451.191C254.396 452.082 252.515 452.997 250.648 453.941C247.846 455.062 245.986 455.297 243 455C241.188 453.812 241.188 453.812 240 452C239.813 449.312 239.813 449.312 240 447C238.02 447.33 236.04 447.66 234 448C234.248 449.392 234.248 449.392 234.5 450.812C235.237 455.857 235.083 460.914 235 466C232.272 461.004 231.234 455.552 229.875 450.062C229.598 448.978 229.321 447.893 229.035 446.775C228.774 445.727 228.512 444.678 228.242 443.598C227.884 442.167 227.884 442.167 227.519 440.707C227.012 438.064 226.903 435.683 227 433C227.33 433 227.66 433 228 433C228.33 431.35 228.66 429.7 229 428Z" fill="#1E1E1E"/>
<path d="M251 408C253.546 408.737 255.953 409.524 258.426 410.449C259.132 410.704 259.837 410.958 260.565 411.22C262.817 412.034 265.065 412.86 267.312 413.688C270.244 414.761 273.178 415.826 276.113 416.887C276.838 417.151 277.563 417.416 278.311 417.689C282.106 419.052 285.897 420.281 289.791 421.334C290.566 421.546 291.342 421.758 292.142 421.976C293.62 422.37 295.103 422.747 296.591 423.104C300.125 424.042 301.755 424.672 303.974 427.651C304.482 428.814 304.482 428.814 305 430C297.85 428.761 291.315 427.334 284.688 424.313C277.958 421.27 271.085 418.904 264.062 416.625C262.984 416.267 261.905 415.909 260.794 415.54C253.05 412.979 253.05 412.979 245 413C242.034 414.77 242.034 414.77 239.438 417.25C235.739 420.485 232.168 423.409 228 426C228 424.68 228 423.36 228 422C230.195 419.816 230.195 419.816 233.125 417.563C236.294 415.104 239.388 412.682 242.312 409.938C245.65 407.532 246.944 407.663 251 408Z" fill="#1E1E1E"/>
<path d="M248 276C247.392 280.345 246.738 284.676 246 289C246.66 289 247.32 289 248 289C248.315 289.797 248.629 290.593 248.953 291.414C251.224 297.036 253.443 302.094 257 307C257.694 308.319 258.375 309.646 259 311C253.25 314 253.25 314 251 314C250.876 312.948 250.752 311.896 250.625 310.812C249.547 306.197 246.856 303.168 243.875 299.625C240.704 295.774 238.279 292.662 238.125 287.5C238.59 283.352 239.873 280.859 243 278C246 276 246 276 248 276Z" fill="#FAFAFA"/>
<path d="M375 319C376.192 322.577 375.772 324.456 375.145 328.16C374.936 329.418 374.727 330.675 374.512 331.97C374.279 333.334 374.046 334.698 373.812 336.062C373.462 338.157 373.115 340.251 372.768 342.346C372.531 343.773 372.293 345.2 372.055 346.627C370.871 353.721 369.771 360.827 368.687 367.938C368.516 369.056 368.345 370.174 368.169 371.326C367.778 373.884 367.389 376.442 367 379C366.01 379 365.02 379 364 379C363.596 364.443 365.612 351.076 368.937 336.938C369.317 335.313 369.317 335.313 369.704 333.655C370.981 328.405 372.28 323.685 375 319Z" fill="#1E1E1E"/>
<path d="M207 525C207.66 525.33 208.32 525.66 209 526C210.368 526.095 211.741 526.131 213.113 526.133C213.942 526.135 214.771 526.137 215.625 526.139C216.955 526.132 216.955 526.132 218.312 526.125C219.225 526.123 220.137 526.121 221.076 526.119C226.895 526.082 232.62 525.763 238.414 525.223C246.591 524.715 254.81 524.924 263 525C263 525.66 263 526.32 263 527C264.32 527.33 265.64 527.66 267 528C261.257 528.433 255.514 528.86 249.77 529.282C247.821 529.426 245.873 529.571 243.925 529.718C215.923 531.832 215.923 531.832 206 530C206.33 528.35 206.66 526.7 207 525Z" fill="#1E1E1E"/>
<path d="M290 468C293.647 470.696 296.113 473.254 298.562 477.062C299.235 478.107 299.908 479.151 300.602 480.227C300.974 480.815 301.347 481.403 301.731 482.009C303.188 484.295 304.668 486.565 306.148 488.836C307.246 490.536 308.342 492.236 309.438 493.938C309.97 494.754 310.502 495.571 311.051 496.412C311.549 497.193 312.046 497.973 312.559 498.777C313.005 499.471 313.452 500.164 313.912 500.879C315.124 503.242 315.594 505.386 316 508C315.01 508 314.02 508 313 508C311.153 505.917 309.548 503.883 307.938 501.625C307.459 500.962 306.98 500.299 306.487 499.615C302.822 494.419 299.545 489.045 296.438 483.5C296.02 482.76 295.603 482.019 295.174 481.256C292.804 476.904 291.172 472.817 290 468Z" fill="#1E1E1E"/>
<path d="M251 286C252.88 288.82 253.537 290.604 254.375 293.812C256.694 301.679 261.116 306.302 266.977 311.852C269.857 314.91 270.915 316.938 271.25 321.125C271 324 271 324 269 326C268.515 325.178 268.031 324.355 267.531 323.508C264.224 318 260.976 312.792 256.812 307.875C252.924 303.154 249.459 298.01 248 292C249.268 287.732 249.268 287.732 251 286Z" fill="#1E1E1E"/>
<path d="M323 252C326.862 252.331 328.984 253.409 331.598 256.281C340.505 267.198 340.505 267.198 340 274C340.66 274 341.32 274 342 274C342 274.66 342 275.32 342 276C339.028 275.423 336.723 274.93 334.803 272.461C333.72 270.505 332.748 268.53 331.812 266.5C329.343 261.029 329.343 261.029 325 257C324.01 257.99 323.02 258.98 322 260C322 259.34 322 258.68 322 258C321.216 258.66 320.433 259.32 319.625 260C317 262 317 262 315 262C314.619 259.674 314.287 257.339 314 255C315 254 315 254 316.848 253.902C318.898 253.935 320.949 253.967 323 254C323 253.34 323 252.68 323 252Z" fill="#1E1E1E"/>
<path d="M372.451 520.794C375.026 520.813 377.601 520.815 380.176 520.814C381.846 520.819 383.517 520.825 385.188 520.832C385.941 520.833 386.694 520.834 387.47 520.835C392.708 520.881 397.801 521.356 403 522C403 522.66 403 523.32 403 524C381.55 524 360.1 524 338 524C338 523.67 338 523.34 338 523C349.527 521.353 360.81 520.708 372.451 520.794Z" fill="#1E1E1E"/>
<path d="M239 227C241.343 228.172 243.612 229.359 245.875 230.688C249.57 232.239 251.215 232.234 255 231C255.681 230.299 256.361 229.598 257.063 228.875C257.702 228.256 258.341 227.637 259 227C261.75 227.25 261.75 227.25 264 228C264.313 230.25 264.313 230.25 264 233C259.022 237.844 254.453 238.467 247.742 238.414C244.014 237.851 242.317 236.524 239.949 233.668C238.633 231.355 238.542 229.595 239 227Z" fill="#1E1E1E"/>
<path d="M248 198C247 201 247 201 244.875 202.875C244.256 203.576 243.637 204.278 243 205C243.14 207.707 243.14 207.707 244 210C245.459 209.886 246.917 209.758 248.375 209.625C249.187 209.555 249.999 209.486 250.836 209.414C253.203 209.171 253.203 209.171 255 207C257.125 207.375 257.125 207.375 259 208C258.771 211.21 257.938 212.056 255.5 214.25C251.173 216.414 247.753 217.03 243 216C239.816 213.373 239.126 211.47 238.062 207.5C237.992 203.579 238.589 202.036 241 199C243.463 197.769 245.279 197.928 248 198Z" fill="#1E1E1E"/>
<path d="M351 326C351.33 326 351.66 326 352 326C352.05 330.429 352.086 334.858 352.11 339.287C352.12 340.792 352.133 342.296 352.151 343.8C352.175 345.972 352.187 348.144 352.195 350.316C352.206 351.62 352.216 352.924 352.227 354.268C351.987 358.213 351.222 361.265 350 365C349.34 365 348.68 365 348 365C344.508 352.737 346.097 337.6 351 326Z" fill="#1E1E1E"/>
<path d="M370.895 443.609C372.01 443.916 373.125 444.223 374.273 444.539C375.278 444.82 376.283 445.1 377.318 445.389C380.192 446.148 380.192 446.148 384 446C383.67 447.32 383.34 448.64 383 450C377.205 449.396 371.799 448.295 366.188 446.75C364.529 446.303 362.87 445.857 361.211 445.41C359.936 445.064 359.936 445.064 358.636 444.711C354.201 443.514 349.756 442.353 345.312 441.187C343.704 440.764 342.096 440.341 340.488 439.918C339.337 439.615 338.186 439.312 337 439C337.598 438.856 338.196 438.711 338.812 438.562C349.488 435.817 360.417 440.679 370.895 443.609Z" fill="#1E1E1E"/>
<path d="M251 408C253.685 408.676 256.27 409.566 258.875 410.5C259.563 410.738 260.252 410.977 260.961 411.223C262.644 411.807 264.322 412.402 266 413C265.34 413.33 264.68 413.66 264 414C264 414.66 264 415.32 264 416C263.215 415.783 262.43 415.567 261.621 415.344C260.571 415.065 259.52 414.787 258.438 414.5C256.889 414.082 256.889 414.082 255.309 413.656C250.234 412.65 246.623 411.969 242.121 414.828C240.793 416.027 240.793 416.027 239.438 417.25C235.739 420.485 232.168 423.409 228 426C228 424.68 228 423.36 228 422C230.195 419.816 230.195 419.816 233.125 417.563C236.294 415.104 239.388 412.682 242.312 409.938C245.658 407.525 246.93 407.66 251 408Z" fill="#1E1E1E"/>
<path d="M299 523C298.67 523.99 298.34 524.98 298 526C294.988 527.506 291.887 527.122 288.586 527.098C287.856 527.096 287.127 527.095 286.375 527.093C284.042 527.088 281.708 527.075 279.375 527.062C277.794 527.057 276.214 527.053 274.633 527.049C270.755 527.038 266.878 527.021 263 527C263 526.34 263 525.68 263 525C258.38 525 253.76 525 249 525C249 524.67 249 524.34 249 524C253.71 523.855 258.42 523.712 263.13 523.573C264.725 523.525 266.32 523.477 267.915 523.427C278.281 523.107 288.629 522.931 299 523Z" fill="#1E1E1E"/>
<path d="M273.375 164.562C279.936 164.645 286.147 168.27 290.812 172.734C292.188 174.375 292.188 174.375 294 177C293.01 177.495 293.01 177.495 292 178C290.039 177.074 290.039 177.074 287.625 175.688C281.917 172.683 276.358 171.732 270 171C269.618 169.344 269.286 167.675 269 166C270 165 270 165 273.375 164.562Z" fill="#1E1E1E"/>
<path d="M268 422C269.686 422.616 271.365 423.26 273 424C273 424.33 273 424.66 273 425C269.055 425.168 265.757 425.016 261.938 424C253.399 422.018 244.927 421.29 237.25 426C236.471 426.557 235.693 427.114 234.891 427.687C233 429 233 429 231 429C237.354 413.697 255.621 419.29 268 422Z" fill="#1E1E1E"/>
<path d="M345 198C345.098 204.152 345.098 204.152 345 206C344.67 206.33 344.34 206.66 344 207C343.051 206.959 342.103 206.918 341.125 206.875C337.501 207.02 337.347 207.547 335 210C332.812 209.688 332.812 209.688 331 209C330.67 207.68 330.34 206.36 330 205C331.123 204.018 332.248 203.04 333.375 202.063C334.315 201.245 334.315 201.245 335.273 200.41C338.531 197.749 340.871 197.91 345 198Z" fill="#1E1E1E"/>
<path d="M242 164C242.625 165.875 242.625 165.875 243 168C240.284 170.716 237.243 171.161 233.625 172.062C232.952 172.236 232.279 172.409 231.586 172.588C229.726 173.066 227.863 173.533 226 174C225.183 174.205 224.365 174.41 223.523 174.621C223.021 174.746 222.518 174.871 222 175C222.356 172.22 222.771 171.198 224.926 169.332C225.713 168.831 226.501 168.329 227.312 167.812C228.482 167.049 228.482 167.049 229.676 166.27C233.834 163.998 237.298 163.893 242 164Z" fill="#1E1E1E"/>
<path d="M246.789 524.902C247.73 524.906 248.671 524.909 249.641 524.912C250.625 524.92 251.61 524.929 252.625 524.937C253.618 524.942 254.61 524.947 255.633 524.951C258.089 524.963 260.544 524.979 263 525C263 525.66 263 526.32 263 527C264.32 527.33 265.64 527.66 267 528C238.848 530.388 238.848 530.388 227 530C227 529.67 227 529.34 227 529C230.96 529 234.92 529 239 529C239.33 528.01 239.66 527.02 240 526C242.453 524.774 244.051 524.886 246.789 524.902Z" fill="#1E1E1E"/>
<path d="M233.063 180.25C235 181 235 181 237 183C237.556 189.111 237.556 189.111 235.75 192C234 193 234 193 231.938 192.938C230 192 230 192 228.75 190.313C227.796 187.372 227.666 185.072 228 182C231 180 231 180 233.063 180.25Z" fill="#1E1E1E"/>
<path d="M276 180C280.706 180.706 280.706 180.706 282 182C282.072 183.853 282.084 185.708 282.063 187.562C282.053 188.574 282.044 189.586 282.035 190.629C282.024 191.411 282.012 192.194 282 193C280.35 193.33 278.7 193.66 277 194C274.749 189.499 274.753 185.932 275 181C275.33 180.67 275.66 180.34 276 180Z" fill="#1E1E1E"/>
<path d="M334 272C334.66 272.33 335.32 272.66 336 273C336 273.99 336 274.98 336 276C334.891 277.109 333.775 278.211 332.633 279.285C327.415 284.765 323.231 291.187 320 298C319.01 298 318.02 298 317 298C316.34 298.33 315.68 298.66 315 299C318.643 288.786 327.126 280.226 334 272Z" fill="#1E1E1E"/>
<path d="M323 252C326.552 252.304 327.971 252.976 330.75 255.312C332.786 257.745 333.658 258.92 334 262C333.257 261.175 332.515 260.35 331.75 259.5C329.126 256.552 329.126 256.552 325 257C323.249 258.417 323.249 258.417 322 260C322 259.34 322 258.68 322 258C321.216 258.66 320.433 259.32 319.625 260C317 262 317 262 315 262C314.619 259.674 314.287 257.339 314 255C315 254 315 254 316.848 253.902C318.898 253.935 320.949 253.967 323 254C323 253.34 323 252.68 323 252Z" fill="#1E1E1E"/>
<path d="M267 433C267 433.33 267 433.66 267 434C266.345 433.938 265.69 433.877 265.016 433.813C262.012 433.549 259.007 433.337 256 433.125C254.97 433.027 253.94 432.929 252.879 432.828C247.376 432.478 243.971 432.468 239.562 435.992C238.986 436.55 238.41 437.108 237.816 437.683C235.449 439.399 233.856 439.236 231 439C232.656 437.096 233.551 436.095 236.062 435.562C238.202 435.186 238.202 435.186 239.125 433C239.414 432.34 239.702 431.68 240 431C247.78 427.11 259.134 431.071 267 433Z" fill="#1E1E1E"/>
<path d="M375 319C376.155 322.464 375.821 324.188 375.223 327.762C375.039 328.88 374.855 329.998 374.666 331.15C374.467 332.318 374.268 333.485 374.063 334.688C373.867 335.866 373.672 337.045 373.471 338.26C372.987 341.174 372.496 344.088 372 347C371.67 347 371.34 347 371 347C370.856 346.257 370.711 345.515 370.563 344.75C370.09 342.136 370.09 342.136 369.387 340.227C368.206 333.43 371.504 324.827 375 319Z" fill="#1E1E1E"/>
<path d="M348.688 437.813C349.565 438.002 350.443 438.191 351.348 438.387C354.912 439.211 358.459 440.082 362 441C361.34 441.66 360.68 442.32 360 443C360.33 443.66 360.66 444.32 361 445C358.312 444.377 355.625 443.752 352.938 443.125C352.185 442.951 351.433 442.777 350.658 442.598C346.063 441.523 341.527 440.335 337 439C337.598 438.856 338.196 438.711 338.812 438.563C344.923 436.991 344.923 436.991 348.688 437.813Z" fill="#1E1E1E"/>
<path d="M245 408C250.173 407.678 254.088 408.784 258.875 410.5C259.908 410.858 259.908 410.858 260.961 411.223C262.644 411.807 264.322 412.402 266 413C265.01 413.495 265.01 413.495 264 414C264 414.66 264 415.32 264 416C255.09 414.02 255.09 414.02 246 412C247.32 411.34 248.64 410.68 250 410C248.35 409.67 246.7 409.34 245 409C245 408.67 245 408.34 245 408Z" fill="#1E1E1E"/>
<path d="M264 414C270.33 414.563 276.218 416.349 282 419C282.33 419.66 282.66 420.32 283 421C275.97 420.546 270.415 418.879 264 416C264 415.34 264 414.68 264 414Z" fill="#1E1E1E"/>
<path d="M347 278C352.795 278.523 357.581 279.701 362.938 281.938C363.608 282.202 364.279 282.467 364.971 282.74C369.868 284.736 369.868 284.736 371 287C362.508 285.51 354.911 282.314 347 279C347 278.67 347 278.34 347 278Z" fill="#1E1E1E"/>
<path d="M261 445C266.098 444.628 269.315 445.766 273.875 448C275.027 448.557 276.18 449.114 277.367 449.687C278.236 450.121 279.105 450.554 280 451C279.67 451.66 279.34 452.32 279 453C273.367 452.407 268.015 450.616 263 448C262.34 447.01 261.68 446.02 261 445Z" fill="#1E1E1E"/>
<path d="M289 316C289.814 318.314 290.204 319.507 289.25 321.816C285.216 327.451 281.516 328.828 275 331C275.23 329.113 275.23 329.113 276 327C277.926 325.98 277.926 325.98 280.312 325.188C285.407 323.168 286.816 320.937 289 316Z" fill="#1E1E1E"/>
<path d="M207 525C207.66 525.33 208.32 525.66 209 526C210.537 526.225 212.08 526.408 213.625 526.562C214.442 526.646 215.26 526.73 216.102 526.816C216.728 526.877 217.355 526.938 218 527C217.67 527.66 217.34 528.32 217 529C219.64 529.33 222.28 529.66 225 530C225 530.33 225 530.66 225 531C222.958 531.027 220.917 531.047 218.875 531.062C217.738 531.074 216.601 531.086 215.43 531.098C212.187 531.005 209.181 530.614 206 530C206.33 528.35 206.66 526.7 207 525Z" fill="#1E1E1E"/>
<path d="M266 446C263.235 447.843 260.56 449.268 257.562 450.687C256.615 451.145 255.668 451.603 254.691 452.074C251.866 453.046 250.734 453.066 248 452C249.291 451.186 250.583 450.374 251.875 449.562C252.954 448.884 252.954 448.884 254.055 448.191C258.264 445.614 261.097 445.921 266 446Z" fill="#1E1E1E"/>
<path d="M330 434C340.558 434.595 340.558 434.595 345 438C340.916 439.532 337.205 438.631 333 438C333 437.34 333 436.68 333 436C332.01 436 331.02 436 330 436C330 435.34 330 434.68 330 434Z" fill="#1E1E1E"/>
<path d="M314 255C316.97 255 319.94 255 323 255C322.049 256.173 321.089 257.338 320.125 258.5C319.591 259.15 319.058 259.799 318.508 260.469C318.01 260.974 317.513 261.479 317 262C316.34 262 315.68 262 315 262C314.67 259.69 314.34 257.38 314 255Z" fill="#FAFAFA"/>
<path d="M237 418C237.66 418.33 238.32 418.66 239 419C237.501 422.816 235.201 424.537 232 427C231.67 427.66 231.34 428.32 231 429C231.66 429.33 232.32 429.66 233 430C232.34 430 231.68 430 231 430C230.67 431.32 230.34 432.64 230 434C229.103 430.91 228.599 428.21 229 425C231.291 422.119 233.968 420.063 237 418Z" fill="#1E1E1E"/>
<path d="M249 524C255.93 524 262.86 524 270 524C270 524.99 270 525.98 270 527C267.69 527 265.38 527 263 527C263 526.34 263 525.68 263 525C258.38 525 253.76 525 249 525C249 524.67 249 524.34 249 524Z" fill="#1E1E1E"/>
<path d="M260.988 420.953C265.276 421.501 269.062 422.094 273 424C273 424.33 273 424.66 273 425C267.367 425.24 262.455 424.385 257 423C259 421 259 421 260.988 420.953Z" fill="#1E1E1E"/>
<path d="M375 319C376.226 322.678 375.703 324.882 375.062 328.688C374.868 329.867 374.673 331.046 374.473 332.262C374.317 333.165 374.161 334.069 374 335C373.34 334.34 372.68 333.68 372 333C371.01 333.495 371.01 333.495 370 334C370.453 332.249 370.913 330.499 371.375 328.75C371.63 327.775 371.885 326.801 372.148 325.797C372.896 323.342 373.771 321.244 375 319Z" fill="#1E1E1E"/>
<path d="M240 447C240.99 447.33 241.98 447.66 243 448C243.33 448.99 243.66 449.98 244 451C245.65 451 247.3 451 249 451C249.33 451.99 249.66 452.98 250 454C243.575 455.334 243.575 455.334 241.062 453.875C239.696 451.464 239.779 449.727 240 447Z" fill="#1E1E1E"/>
<path d="M359 442C360.605 442.141 362.209 442.288 363.812 442.438C364.706 442.519 365.599 442.6 366.52 442.684C369 443 369 443 372 444C372 444.66 372 445.32 372 446C367.493 446.177 364.034 446.136 360 444C359.67 443.34 359.34 442.68 359 442Z" fill="#1E1E1E"/>
<path d="M267 436C267 436.66 267 437.32 267 438C261.555 438.99 261.555 438.99 256 440C256 439.34 256 438.68 256 438C255.01 437.67 254.02 437.34 253 437C257.672 435.794 262.215 435.906 267 436Z" fill="#1E1E1E"/>
<path d="M228 285C230.31 285 232.62 285 235 285C235 285.99 235 286.98 235 288C231.629 289.498 229.796 290 226 290C226.66 288.35 227.32 286.7 228 285Z" fill="#1E1E1E"/>
<path d="M247 268C247.99 268 248.98 268 250 268C250.25 274.625 250.25 274.625 248 278C248 276.68 248 275.36 248 274C247.01 274 246.02 274 245 274C245 272.68 245 271.36 245 270C245.66 270 246.32 270 247 270C247 269.34 247 268.68 247 268Z" fill="#1E1E1E"/>
<path d="M448 437C450.97 437.495 450.97 437.495 454 438C453.67 439.32 453.34 440.64 453 442C451.35 442.33 449.7 442.66 448 443C448 441.02 448 439.04 448 437Z" fill="#1E1E1E"/>
<path d="M366 367C366.33 367 366.66 367 367 367C367 370.96 367 374.92 367 379C366.01 379 365.02 379 364 379C364.14 377.187 364.287 375.375 364.438 373.562C364.519 372.553 364.6 371.544 364.684 370.504C365 368 365 368 366 367Z" fill="#1E1E1E"/>
<path d="M233 448C233.33 448 233.66 448 234 448C235.071 454.026 235.099 459.889 235 466C231.8 460.005 231.784 454.618 233 448Z" fill="#1E1E1E"/>
<path d="M326 432C328.97 432.495 328.97 432.495 332 433C331.01 433.495 331.01 433.495 330 434C330 434.66 330 435.32 330 436C330.99 436.33 331.98 436.66 333 437C331.742 436.876 330.484 436.752 329.188 436.625C328.126 436.521 328.126 436.521 327.043 436.414C325 436 325 436 322 434C323.32 434 324.64 434 326 434C326 433.34 326 432.68 326 432Z" fill="#1E1E1E"/>
<path d="M229 428C229.33 428 229.66 428 230 428C231.453 436.193 231.453 436.193 229.562 439.562C229.047 440.037 228.531 440.511 228 441C227.67 438.36 227.34 435.72 227 433C227.33 433 227.66 433 228 433C228.33 431.35 228.66 429.7 229 428Z" fill="#1E1E1E"/>
<path d="M245 408C249.468 407.787 252.823 408.409 257 410C256.01 410.495 256.01 410.495 255 411C255 411.66 255 412.32 255 413C252.03 412.67 249.06 412.34 246 412C247.32 411.34 248.64 410.68 250 410C248.35 409.67 246.7 409.34 245 409C245 408.67 245 408.34 245 408Z" fill="#1E1E1E"/>
<path d="M233 462C233.99 462.33 234.98 462.66 236 463C236 463.99 236 464.98 236 466C238.64 466 241.28 466 244 466C244 466.33 244 466.66 244 467C242.272 467.197 240.542 467.382 238.812 467.562C237.85 467.667 236.887 467.771 235.895 467.879C233.058 467.998 230.746 467.678 228 467C228 466.67 228 466.34 228 466C229.65 466 231.3 466 233 466C233 464.68 233 463.36 233 462Z" fill="#FAFAFA"/>
<path d="M261 445C266.415 444.631 266.415 444.631 269.375 446.5C269.911 446.995 270.447 447.49 271 448C270.34 448.66 269.68 449.32 269 450C263.25 448.375 263.25 448.375 261 445Z" fill="#1E1E1E"/>
<path d="M355 440C358.688 440.312 358.688 440.312 362 441C361.34 441.66 360.68 442.32 360 443C360.33 443.66 360.66 444.32 361 445C356.545 444.01 356.545 444.01 352 443C352.99 442.01 353.98 441.02 355 440Z" fill="#1E1E1E"/>
<path d="M240 434C239.438 435.938 239.438 435.938 238 438C234.375 438.75 234.375 438.75 231 439C233.545 436.201 236.076 434 240 434Z" fill="#1E1E1E"/>
<path d="M246.625 418.937C247.851 418.951 247.851 418.951 249.102 418.965C250.041 418.982 250.041 418.982 251 419C250.67 419.99 250.34 420.98 250 422C247.36 422.33 244.72 422.66 242 423C242 422.34 242 421.68 242 421C241.34 420.67 240.68 420.34 240 420C242.405 418.797 243.95 418.899 246.625 418.937Z" fill="#1E1E1E"/>
<path d="M274 325C274.99 325.33 275.98 325.66 277 326C276.34 327.65 275.68 329.3 275 331C273 331 271 331 269 331C270.65 329.02 272.3 327.04 274 325Z" fill="#FAFAFA"/>
<path d="M334 272C334.66 272.33 335.32 272.66 336 273C336 276 336 276 334.688 277.387C333.125 278.591 331.562 279.796 330 281C330 276.319 330.996 275.379 334 272Z" fill="#1E1E1E"/>
<path d="M408 449C406.35 449.66 404.7 450.32 403 451C403 451.66 403 452.32 403 453C400.03 452.505 400.03 452.505 397 452C400.818 448.972 403.186 447.506 408 449Z" fill="#FAFAFA"/>
<path d="M348 439C350.875 438.812 350.875 438.812 354 439C354.66 439.99 355.32 440.98 356 442C353.36 442 350.72 442 348 442C348 441.01 348 440.02 348 439Z" fill="#1E1E1E"/>
<path d="M279 453C280.65 453 282.3 453 284 453C284 453.99 284 454.98 284 456C284.66 456.33 285.32 456.66 286 457C284.68 457.33 283.36 457.66 282 458C282 457.34 282 456.68 282 456C280.68 455.67 279.36 455.34 278 455C278.33 454.34 278.66 453.68 279 453Z" fill="#1E1E1E"/>
<path d="M322.062 430.938C323.517 430.968 323.517 430.968 325 431C325.33 431.99 325.66 432.98 326 434C323.125 434.125 323.125 434.125 320 434C319.34 433.34 318.68 432.68 318 432C319 431 319 431 322.062 430.938Z" fill="#1E1E1E"/>
<path d="M259 311C261.964 313.808 264.445 316.183 266 320C265.01 320 264.02 320 263 320C261.476 317.017 260.061 314.182 259 311Z" fill="#FAFAFA"/>
<path d="M280 297C280.99 297.33 281.98 297.66 283 298C283 300.97 283 303.94 283 307C280.704 303.555 280.46 301.062 280 297Z" fill="#1E1E1E"/>
<path d="M242 444C241.67 444.66 241.34 445.32 241 446C238.686 446.731 236.352 447.401 234 448C233.67 447.01 233.34 446.02 233 445C236.196 443.935 238.657 443.926 242 444Z" fill="#1E1E1E"/>
<path d="M242 414C242.66 414.33 243.32 414.66 244 415C242.515 416.485 242.515 416.485 241 418C241.33 418.66 241.66 419.32 242 420C240.02 420.66 238.04 421.32 236 422C237.98 419.36 239.96 416.72 242 414Z" fill="#FAFAFA"/>
<path d="M277 326C278.32 326 279.64 326 281 326C281 326.66 281 327.32 281 328C277.538 331 277.538 331 275 331C275.875 327.125 275.875 327.125 277 326Z" fill="#1E1E1E"/>
<path d="M251 286C252.945 288.918 253.453 290.625 254 294C253.34 294 252.68 294 252 294C251.01 292.02 250.02 290.04 249 288C249.66 287.34 250.32 286.68 251 286Z" fill="#1E1E1E"/>
<path d="M337 436C339.875 435.812 339.875 435.812 343 436C343.66 436.99 344.32 437.98 345 439C342.36 438.67 339.72 438.34 337 438C337 437.34 337 436.68 337 436Z" fill="#1E1E1E"/>
<path d="M215 291C215.66 291.99 216.32 292.98 217 294C212.375 296.125 212.375 296.125 209 295C210.98 293.68 212.96 292.36 215 291Z" fill="#1E1E1E"/>
</svg>
