<svg width="24" height="24" viewBox="0 0 24 24" fill="none" xmlns="http://www.w3.org/2000/svg">
<rect width="24" height="24" rx="12" fill="#222222"/>
<path d="M6.424 17V9.496H8.314L8.384 11.302L8.188 11.218C8.29067 10.8167 8.44467 10.476 8.65 10.196C8.86467 9.916 9.12133 9.70133 9.42 9.552C9.71867 9.40267 10.0453 9.328 10.4 9.328C11.0253 9.328 11.5293 9.51 11.912 9.874C12.304 10.238 12.556 10.728 12.668 11.344L12.402 11.358C12.486 10.9193 12.6307 10.5507 12.836 10.252C13.0507 9.944 13.312 9.71533 13.62 9.566C13.928 9.40733 14.2733 9.328 14.656 9.328C15.1787 9.328 15.6267 9.43533 16 9.65C16.3733 9.86467 16.6627 10.1867 16.868 10.616C17.0733 11.036 17.176 11.554 17.176 12.17V17H15.076V12.758C15.076 12.17 14.9873 11.7313 14.81 11.442C14.6327 11.1433 14.3433 10.994 13.942 10.994C13.69 10.994 13.4753 11.064 13.298 11.204C13.1207 11.344 12.9807 11.5493 12.878 11.82C12.7847 12.0813 12.738 12.4033 12.738 12.786V17H10.848V12.786C10.848 12.2073 10.764 11.764 10.596 11.456C10.428 11.148 10.1387 10.994 9.728 10.994C9.476 10.994 9.25667 11.064 9.07 11.204C8.89267 11.344 8.75733 11.5493 8.664 11.82C8.57067 12.0907 8.524 12.4127 8.524 12.786V17H6.424Z" fill="#FAFAFA"/>
</svg>
